<svg width="1246" height="605" viewBox="0 0 1246 605" fill="none" xmlns="http://www.w3.org/2000/svg">
<path d="M352.45 247.672H274.68C273.26 237.61 270.36 228.673 265.98 220.861C261.6 212.93 255.978 206.183 249.112 200.619C242.247 195.056 234.316 190.794 225.32 187.835C216.442 184.876 206.795 183.396 196.378 183.396C177.557 183.396 161.162 188.072 147.195 197.423C133.227 206.656 122.396 220.151 114.702 237.906C107.008 255.544 103.161 276.969 103.161 302.182C103.161 328.105 107.008 349.885 114.702 367.523C122.514 385.16 133.404 398.477 147.372 407.473C161.34 416.469 177.498 420.967 195.845 420.967C206.143 420.967 215.672 419.606 224.432 416.884C233.31 414.161 241.181 410.196 248.047 404.987C254.912 399.661 260.594 393.209 265.092 385.634C269.709 378.058 272.905 369.417 274.68 359.71L352.45 360.065C350.438 376.756 345.407 392.854 337.358 408.361C329.427 423.749 318.714 437.539 305.22 449.732C291.844 461.805 275.864 471.393 257.28 478.496C238.814 485.48 217.921 488.972 194.602 488.972C162.169 488.972 133.168 481.633 107.599 466.955C82.1496 452.277 62.0265 431.029 47.2301 403.212C32.5521 375.394 25.2131 341.718 25.2131 302.182C25.2131 262.527 32.6705 228.792 47.5852 200.974C62.5 173.157 82.7415 151.969 108.31 137.409C133.878 122.731 162.642 115.392 194.602 115.392C215.672 115.392 235.204 118.351 253.196 124.27C271.307 130.188 287.346 138.83 301.314 150.193C315.282 161.438 326.645 175.229 335.405 191.564C344.283 207.899 349.964 226.602 352.45 247.672ZM741.744 302.182C741.744 341.836 734.227 375.572 719.194 403.389C704.279 431.206 683.919 452.454 658.114 467.132C632.428 481.692 603.545 488.972 571.467 488.972C539.151 488.972 510.15 481.633 484.464 466.955C458.777 452.277 438.477 431.029 423.562 403.212C408.647 375.394 401.19 341.718 401.19 302.182C401.19 262.527 408.647 228.792 423.562 200.974C438.477 173.157 458.777 151.969 484.464 137.409C510.15 122.731 539.151 115.392 571.467 115.392C603.545 115.392 632.428 122.731 658.114 137.409C683.919 151.969 704.279 173.157 719.194 200.974C734.227 228.792 741.744 262.527 741.744 302.182ZM663.796 302.182C663.796 276.495 659.949 254.833 652.255 237.196C644.679 219.559 633.967 206.183 620.117 197.068C606.268 187.954 590.051 183.396 571.467 183.396C552.882 183.396 536.665 187.954 522.816 197.068C508.967 206.183 498.195 219.559 490.501 237.196C482.925 254.833 479.137 276.495 479.137 302.182C479.137 327.868 482.925 349.53 490.501 367.168C498.195 384.805 508.967 398.181 522.816 407.295C536.665 416.41 552.882 420.967 571.467 420.967C590.051 420.967 606.268 416.41 620.117 407.295C633.967 398.181 644.679 384.805 652.255 367.168C659.949 349.53 663.796 327.868 663.796 302.182Z" fill="#00C853"/>
<path d="M802.409 338.545H846.443L874.852 397.636H875.989L904.398 338.545H948.432L895.023 438.261V484H855.818V438.261L802.409 338.545ZM1092.06 411.273C1092.06 427.466 1088.91 441.126 1082.61 452.253C1076.31 463.332 1067.82 471.737 1057.11 477.466C1046.41 483.148 1034.48 485.989 1021.32 485.989C1008.06 485.989 996.082 483.124 985.381 477.395C974.728 471.618 966.253 463.19 959.955 452.111C953.705 440.984 950.58 427.371 950.58 411.273C950.58 395.08 953.705 381.443 959.955 370.364C966.253 359.237 974.728 350.832 985.381 345.151C996.082 339.421 1008.06 336.557 1021.32 336.557C1034.48 336.557 1046.41 339.421 1057.11 345.151C1067.82 350.832 1076.31 359.237 1082.61 370.364C1088.91 381.443 1092.06 395.08 1092.06 411.273ZM1051.43 411.273C1051.43 402.561 1050.27 395.222 1047.95 389.256C1045.68 383.242 1042.29 378.697 1037.8 375.619C1033.35 372.494 1027.85 370.932 1021.32 370.932C1014.78 370.932 1009.27 372.494 1004.77 375.619C1000.32 378.697 996.934 383.242 994.614 389.256C992.342 395.222 991.205 402.561 991.205 411.273C991.205 419.985 992.342 427.348 994.614 433.361C996.934 439.327 1000.32 443.872 1004.77 446.997C1009.27 450.075 1014.78 451.614 1021.32 451.614C1027.85 451.614 1033.35 450.075 1037.8 446.997C1042.29 443.872 1045.68 439.327 1047.95 433.361C1050.27 427.348 1051.43 419.985 1051.43 411.273ZM1196.41 338.545H1235.9V431.727C1235.9 442.807 1233.24 452.395 1227.94 460.491C1222.69 468.541 1215.35 474.767 1205.92 479.17C1196.5 483.527 1185.56 485.705 1173.11 485.705C1160.56 485.705 1149.58 483.527 1140.16 479.17C1130.74 474.767 1123.4 468.541 1118.14 460.491C1112.93 452.395 1110.33 442.807 1110.33 431.727V338.545H1149.82V428.318C1149.82 432.816 1150.81 436.841 1152.8 440.392C1154.79 443.896 1157.53 446.642 1161.04 448.631C1164.59 450.619 1168.61 451.614 1173.11 451.614C1177.66 451.614 1181.68 450.619 1185.19 448.631C1188.69 446.642 1191.44 443.896 1193.42 440.392C1195.41 436.841 1196.41 432.816 1196.41 428.318V338.545Z" fill="#00C853"/>
</svg>
